#!OML:ASF E:\Steps\Project 1\Capture day 1\Session 2\Subject.ASF
:FULLY-SPECIFIED
:DEGREES
514
root 10.0723 16.3315 2.17822 -160.314 3.78051 176.371
lowerback -19.3123 0.720734 -7.30477
upperback 2.93321 3.10384 -1.78151
thorax 13.9941 0.968592 3.10048
lowerneck -3.88566 -1.19728 -1.65617
upperneck 19.9904 -3.3462 2.86957
head 6.79309 -1.99397 0.90899
rclavicle -5.56597e-015 3.4191e-014
rhumerus -25.5644 -4.07923 -85.7308
rradius 47.3858
rwrist -8.46916
rhand -3.38308 -57.3961
rfingers 7.12502
rthumb 22.3463 273.876
lclavicle -5.56597e-015 3.4191e-014
lhumerus -35.5101 8.79089 74.2787
lradius 21.7274
lwrist -12.2238
lhand -19.4826 -10.8838
lfingers 7.12502
lthumb 6.83925 18.9857
rfemur -15.9604 8.19196 20.0707
rtibia 12.8133
rfoot -22.9445 -8.55812
rtoes -40.9281
lfemur -80.1269 -1.03975 -22.6771
ltibia 70.8594
lfoot -9.92145 3.72194
ltoes -34.854
515
root 10.0662 16.3287 2.0838 -160.11 3.83142 176.323
lowerback -19.4225 0.790606 -7.34959
upperback 2.80743 3.24137 -1.92411
thorax 13.9046 1.04671 3.00952
lowerneck -3.317 -1.21803 -1.3378
upperneck 19.3851 -3.311 2.66576
head 6.49055 -1.96596 0.804484
rclavicle -1.88845e-014 1.98785e-016
rhumerus -25.6354 -4.07846 -86.0055
rradius 47.6542
rwrist -8.59724
rhand -1.31047 -60.0566
rfingers 7.12502
rthumb 24.3346 271.468
lclavicle -1.88845e-014 1.98785e-016
lhumerus -35.5108 8.31673 74.2937
lradius 21.7852
lwrist -12.0312
lhand -19.7458 -10.4825
lfingers 7.12502
lthumb 6.58521 19.3951
rfemur -15.8562 8.10353 19.9662
rtibia 12.8445
rfoot -23.0074 -8.45345
rtoes -40.4483
lfemur -79.7457 -1.0803 -22.8418
ltibia 70.6606
lfoot -9.90773 3.60707
ltoes -33.5363
516
root 10.0613 16.328 1.99408 -159.922 3.81174 176.318
lowerback -19.4284 0.820548 -7.40678
upperback 2.7003 3.30589 -1.99838
thorax 13.7776 1.08658 2.97686
lowerneck -4.01154 -1.36946 -1.7611
upperneck 20.3464 -3.6626 3.04856
head 6.94337 -2.1494 0.956575
rclavicle 1.39149e-015 -1.23246e-014
rhumerus -25.5065 -3.99009 -86.2019
rradius 47.5669
rwrist -8.59363
rhand -4.22504 -54.943
rfingers 7.12502
rthumb 21.5378 276.235
lclavicle 1.39149e-015 -1.23246e-014
lhumerus -35.3853 8.53119 74.1498
lradius 21.6497
lwrist -12.3803
lhand -20.0764 -10.4067
lfingers 7.12502
lthumb 6.26605 19.4806
rfemur -15.8668 7.9459 19.9522
rtibia 13.21
rfoot -23.1635 -8.4957
rtoes -41.34
lfemur -79.3569 -1.13018 -22.9588
ltibia 70.4629
lfoot -9.86712 3.52676
ltoes -32.517
517
root 10.0581 16.3258 1.89894 -159.766 3.81805 176.31
lowerback -19.5056 0.845979 -7.52288
upperback 2.68663 3.38185 -2.02376
thorax 13.7962 1.11414 3.03936
lowerneck -3.38662 -1.32308 -1.30015
upperneck 19.5014 -3.46076 2.61207
head 6.54196 -2.03983 0.76927
rclavicle -7.65321e-015 2.18663e-014
rhumerus -25.4394 -3.69729 -86.2982
rradius 47.7553
rwrist -8.73835
rhand -3.66902 -56.1943
rfingers 7.12502
rthumb 22.0718 275.045
lclavicle -7.65321e-015 2.18663e-014
lhumerus -35.2666 8.70026 74.1188
lradius 21.8513
lwrist -12.4775
lhand -19.9982 -10.379
lfingers 7.12502
lthumb 6.34159 19.5061
rfemur -15.7541 7.86015 19.9309
rtibia 13.3891
rfoot -23.2382 -8.42343
rtoes -41.7346
lfemur -78.9141 -1.13686 -23.1271
ltibia 70.2852
lfoot -9.45276 3.60254
ltoes -34.9099
518
root 10.0551 16.326 1.80156 -159.486 3.83809 176.31
lowerback -19.746 0.853999 -7.64526
upperback 2.66395 3.45505 -2.05529
thorax 13.9013 1.13662 3.10425
lowerneck -3.18417 -1.23881 -1.25074
upperneck 18.9917 -3.25705 2.53403
head 6.33747 -1.92828 0.757295
rclavicle 8.94531e-016 -5.28767e-014
rhumerus -25.4042 -3.34349 -86.4056
rradius 48.0713
rwrist -8.98236
rhand -3.91121 -55.9532
rfingers 7.12502
rthumb 21.8392 275.259
lclavicle 8.94531e-016 -5.28767e-014
lhumerus -35.1209 8.516 74.2102
lradius 22.1398
lwrist -12.1193
lhand -19.8308 -10.2934
lfingers 7.12502
lthumb 6.50313 19.5868
rfemur -15.6661 7.93693 19.8796
rtibia 13.2433
rfoot -23.0738 -8.43683
rtoes -41.1117
lfemur -78.5679 -1.13163 -23.3158
ltibia 70.1474
lfoot -9.00491 3.63206
ltoes -36.5271
519
root 10.048 16.3284 1.70121 -159.198 3.92494 176.368
lowerback -19.9805 0.9324 -7.67614
upperback 2.62211 3.59715 -2.09105
thorax 13.9771 1.19926 3.13362
lowerneck -3.89435 -1.44161 -1.92109
upperneck 19.5781 -3.63909 3.22283
head 6.67993 -2.1037 1.05027
rclavicle 1.11319e-014 -2.50469e-014
rhumerus -25.292 -3.14042 -86.4608
rradius 48.1323
rwrist -9.01228
rhand -4.10803 -55.3993
rfingers 7.12502
rthumb 21.6502 275.791
lclavicle 1.11319e-014 -2.50469e-014
lhumerus -34.9439 8.47566 74.2615
lradius 22.2568
lwrist -12.0507
lhand -19.8561 -10.8724
lfingers 7.12502
lthumb 6.47875 19.0085
rfemur -15.5762 7.9603 19.8985
rtibia 13.16
rfoot -22.8242 -8.51686
rtoes -40.9875
lfemur -78.0941 -1.07076 -23.4645
ltibia 69.8269
lfoot -9.1746 3.50122
ltoes -32.3925
520
root 10.0392 16.3313 1.59879 -159.014 4.04941 176.31
lowerback -20.0448 1.03225 -7.80378
upperback 2.55682 3.78488 -2.18105
thorax 13.9186 1.28716 3.16316
lowerneck -4.061 -1.50366 -1.92437
upperneck 19.6987 -3.72295 3.20511
head 6.75029 -2.14196 1.03644
rclavicle -2.25621e-014 2.3059e-014
rhumerus -25.3787 -3.02922 -86.51
rradius 48.2762
rwrist -8.94037
rhand -3.67214 -55.7471
rfingers 7.12502
rthumb 22.0688 275.492
lclavicle -2.25621e-014 2.3059e-014
lhumerus -34.9433 8.32985 74.3009
lradius 22.5409
lwrist -12.055
lhand -20.132 -11.38
lfingers 7.12502
lthumb 6.2124 18.5089
rfemur -15.3739 7.79848 19.7911
rtibia 13.1917
rfoot -22.6391 -8.48592
rtoes -41.0353
lfemur -77.382 -1.03309 -23.7442
ltibia 69.3316
lfoot -10.2025 3.4521
ltoes -26.2229
521
root 10.0314 16.337 1.5012 -158.753 4.0982 176.302
lowerback -20.0846 1.0743 -7.86794
upperback 2.44714 3.87511 -2.27221
thorax 13.8069 1.33984 3.12456
lowerneck -4.10636 -1.40728 -1.81545
upperneck 19.6201 -3.5378 3.01316
head 6.72274 -2.0524 0.970463
rclavicle 6.95746e-016 1.35174e-014
rhumerus -25.4571 -2.78068 -86.6551
rradius 48.3999
rwrist -9.08082
rhand -4.58112 -55.5098
rfingers 7.12502
rthumb 21.1958 275.629
lclavicle 6.95746e-016 1.35174e-014
lhumerus -34.988 8.06982 74.314
lradius 22.8819
lwrist -11.8469
lhand -20.4746 -11.5922
lfingers 7.12502
lthumb 5.8816 18.3061
rfemur -15.2029 7.64184 19.7266
rtibia 13.0398
rfoot -22.3025 -8.5657
rtoes -41.7879
lfemur -76.8429 -0.997845 -23.9898
ltibia 68.9977
lfoot -11.4536 3.74928
ltoes -25.4787
522
root 10.02 16.3438 1.40352 -158.404 4.15403 176.49
lowerback -20.2687 1.14307 -7.7174
upperback 2.33736 3.94869 -2.30872
thorax 13.7893 1.39136 3.02823
lowerneck -3.8976 -1.41433 -1.88567
upperneck 19.2719 -3.51801 3.12319
head 6.57671 -2.03295 1.02425
rclavicle -9.74045e-015 1.63003e-014
rhumerus -25.3706 -2.54882 -86.7791
rradius 48.299
rwrist -9.21117
rhand -7.53894 -54.4429
rfingers 7.12502
rthumb 18.3524 276.403
lclavicle -9.74045e-015 1.63003e-014
lhumerus -34.9233 8.09098 74.2193
lradius 22.9916
lwrist -11.8201
lhand -20.3761 -11.5138
lfingers 7.12502
lthumb 5.97675 18.3819
rfemur -15.086 7.59494 19.8492
rtibia 12.7137
rfoot -21.7776 -8.58338
rtoes -43.1479
lfemur -76.5129 -0.85312 -24.0975
ltibia 68.8025
lfoot -12.1583 4.39566
ltoes -28.2358
523
root 10.006 16.3534 1.30353 -158.021 4.14022 176.598
lowerback -20.4136 1.19722 -7.6202
upperback 2.14306 4.01735 -2.38321
thorax 13.6501 1.44877 2.91525
lowerneck -3.13813 -1.47795 -1.83808
upperneck 18.4701 -3.57029 3.26601
head 6.19192 -2.04352 1.07321
rclavicle -2.38542e-014 5.88403e-014
rhumerus -25.5406 -2.49128 -86.8787
rradius 48.3017
rwrist -9.21019
rhand -4.65063 -55.8973
rfingers 7.12502
rthumb 21.1291 275.234
lclavicle -2.38542e-014 5.88403e-014
lhumerus -34.9102 8.08826 74.0662
lradius 23.0445
lwrist -11.8843
lhand -19.9477 -10.9044
lfingers 7.12502
lthumb 6.39029 18.9792
rfemur -15.0043 7.56085 19.8544
rtibia 12.3962
rfoot -21.2553 -8.38265
rtoes -43.4033
lfemur -76.3008 -0.844108 -24.2629
ltibia 68.7349
lfoot -12.4433 4.87507
ltoes -29.723
524
root 9.99343 16.3664 1.20788 -157.569 4.02152 176.616
lowerback -20.4517 1.21089 -7.63934
upperback 1.90039 4.05126 -2.46038
thorax 13.389 1.49024 2.84891
lowerneck -3.50394 -1.54486 -2.12596
upperneck 19.0907 -3.77103 3.598
head 6.46925 -2.14585 1.2043
rclavicle -4.47266e-015 -1.23246e-014
rhumerus -25.695 -2.45299 -86.9045
rradius 48.2597
rwrist -9.29304
rhand -4.39284 -55.4543
rfingers 7.12502
rthumb 21.3767 275.705
lclavicle -4.47266e-015 -1.23246e-014
lhumerus -34.9205 7.60412 74.1808
lradius 23.3023
lwrist -11.5481
lhand -19.834 -10.336
lfingers 7.12502
lthumb 6.50003 19.5443
rfemur -15.0723 7.62237 19.766
rtibia 12.2706
rfoot -20.8163 -8.36283
rtoes -43.3805
lfemur -76.3596 -1.07715 -24.3175
ltibia 68.9264
lfoot -12.6822 4.60869
ltoes -28.0326
525
root 9.98006 16.3797 1.1181 -157.074 3.94705 176.646
lowerback -20.5799 1.21696 -7.68686
upperback 1.76424 4.09367 -2.51964
thorax 13.3024 1.52031 2.82661
lowerneck -3.97566 -1.6191 -2.00942
upperneck 19.3778 -3.85141 3.40943
head 6.6412 -2.17999 1.1114
rclavicle 4.37326e-015 -1.35174e-014
rhumerus -25.4595 -2.37725 -86.8888
rradius 47.9833
rwrist -9.40037
rhand -5.68834 -53.5491
rfingers 7.12502
rthumb 20.1319 277.474
lclavicle 4.37326e-015 -1.35174e-014
lhumerus -34.7039 7.13455 74.3985
lradius 23.5648
lwrist -11.1538
lhand -20.1505 -10.2201
lfingers 7.12502
lthumb 6.19449 19.6693
rfemur -15.4054 7.61037 19.6804
rtibia 12.5635
rfoot -20.5634 -8.34785
rtoes -43.5732
lfemur -76.7022 -1.42398 -24.1735
ltibia 69.3074
lfoot -12.8441 3.97622
ltoes -25.0478
526
root 9.96683 16.3955 1.02647 -156.632 3.91448 176.776
lowerback -20.7717 1.25607 -7.62558
upperback 1.67777 4.16119 -2.58526
thorax 13.316 1.56309 2.74726
lowerneck -3.97597 -1.6733 -1.73086
upperneck 19.0953 -3.86881 3.22734
head 6.54347 -2.17013 1.00816
rclavicle 2.5345e-014 -4.01545e-014
rhumerus -25.3364 -2.3718 -86.9186
rradius 47.8696
rwrist -9.41971
rhand -5.33689 -53.9419
rfingers 7.12502
rthumb 20.4697 277.117
lclavicle 2.5345e-014 -4.01545e-014
lhumerus -34.4975 6.97065 74.4034
lradius 23.7726
lwrist -11.111
lhand -20.4121 -10.4814
lfingers 7.12502
lthumb 5.94191 19.4153
rfemur -15.8498 7.35667 19.6911
rtibia 13.1498
rfoot -20.4396 -7.87893
rtoes -43.046
lfemur -77.1066 -1.72899 -23.861
ltibia 69.6545
lfoot -12.8088 3.92495
ltoes -25.4346
527
root 9.95665 16.418 0.930107 -156.362 3.82809 176.962
lowerback -20.7741 1.30148 -7.56907
upperback 1.61049 4.20588 -2.5965
thorax 13.2385 1.59421 2.71584
lowerneck -3.66683 -1.70342 -1.76768
upperneck 18.5369 -3.87065 3.40913
head 6.3155 -2.15107 1.08091
rclavicle 1.59028e-015 1.70955e-014
rhumerus -25.4661 -2.35218 -86.9055
rradius 47.955
rwrist -9.34866
rhand -3.63713 -56.0381
rfingers 7.12502
rthumb 22.1024 275.205
lclavicle 1.59028e-015 1.70955e-014
lhumerus -34.4346 6.73616 74.4524
lradius 24.0909
lwrist -10.9731
lhand -20.389 -10.7064
lfingers 7.12502
lthumb 5.96427 19.1897
rfemur -15.6504 7.53706 19.7775
rtibia 12.8785
rfoot -19.7939 -7.68538
rtoes -42.5335
lfemur -77.2923 -1.99426 -23.4617
ltibia 69.8709
lfoot -12.8584 4.3298
ltoes -26.9045
528
root 9.94434 16.4475 0.834012 -156.222 3.63223 177
lowerback -20.5454 1.29022 -7.65379
upperback 1.56736 4.19289 -2.62951
thorax 13.054 1.59549 2.71123
lowerneck -3.86911 -1.78179 -1.95565
upperneck 18.6214 -4.00043 3.65184
head 6.38939 -2.20305 1.1775
rclavicle 7.05686e-014 7.95139e-015
rhumerus -25.5776 -2.3975 -86.8839
rradius 47.9949
rwrist -9.21014
rhand -2.33438 -57.3811
rfingers 7.12502
rthumb 23.3526 274.015
lclavicle 7.05686e-014 7.95139e-015
lhumerus -34.2142 6.56456 74.5191
lradius 24.2523
lwrist -10.8296
lhand -20.2429 -10.854
lfingers 7.12502
lthumb 6.10534 19.0381
rfemur -15.3088 7.70329 19.735
rtibia 12.5679
rfoot -18.9579 -7.75016
rtoes -42.6778
lfemur -77.2345 -2.3989 -23.2516
ltibia 70.0648
lfoot -13.1602 4.42563
ltoes -27.2786
